# xmcd
#
# Track frame offsets:
#	150
#	17032
#	39567
#	50335
#	65040
#	78802
#	93572
#	106582
#	119912
#	134007
#	146490
#	163397
#	178105
#	190380
#	205545
#	223510
#
# Disc length: 3164
#
# Revision: 4
# Processed by: cddbd v1.5.1PL0 Copyright (c) Steve Scherf et al.
# Submitted via: CDex 1.50beta10
# Normalized: r2:TSWAP
#
DISCID=ed0c5a10
DTITLE=Blues - Classic Blues Volume 2
DYEAR=1900
DGENRE=Blues
TTITLE0=TBone Walker - No Do Right
TTITLE1=Lightnin Hopkins - Mr. charlie
TTITLE2=BB King - Recession Blues
TTITLE3=Buddy Ace - I Just Love Your Funky Soul
TTITLE4=Lowell Fulso - My Baby
TTITLE5=Bobby Rush - It's Alright
TTITLE6=Frank Frost - Harp and Soul
TTITLE7=Joe Lee Williams - Highway 49
TTITLE8=Toussaint McCall - Nothing Takes the Place of You
TTITLE9=Bobby Powell - C.C. Rider
TTITLE10=Tina Turner - Shake A Hand
TTITLE11=Wild Child Butler - Runnin' Drunk
TTITLE12=Aaron Neville - Tell It Like It Is
TTITLE13=Lowell Fulson - Sleeper
TTITLE14=Lightnin Hopkins - Backdoor Friend
TTITLE15=Sonny Boy Williamson - Steady Rollin' Man
EXTD=
EXTT0=
EXTT1=
EXTT2=
EXTT3=
EXTT4=
EXTT5=
EXTT6=
EXTT7=
EXTT8=
EXTT9=
EXTT10=
EXTT11=
EXTT12=
EXTT13=
EXTT14=
EXTT15=
PLAYORDER=
